Land_normalized_Motion_pl08
version=1
nRows=12
nColumns=43
inDegrees=yes
endheader
time		pelvis_tilt		pelvis_list		pelvis_rotation		pelvis_tx		pelvis_ty		pelvis_tz		hip_flexion_r		hip_adduction_r		hip_rotation_r		knee_angle_r		ankle_angle_r		subtalar_angle_r		mtp_angle_r		hip_flexion_l		hip_adduction_l		hip_rotation_l		knee_angle_l		ankle_angle_l		subtalar_angle_l		mtp_angle_l		lumbar_extension		lumbar_bending		lumbar_rotation		neck_flexion		neck_lateral_bending		neck_rotation		arm_flex_r		arm_add_r		arm_rot_r		elbow_flex_r		pro_sup_r		wrist_flex_r		wrist_dev_r		hand_finger_flex_r		arm_flex_l		arm_add_l		arm_rot_l		elbow_flex_l		pro_sup_l		wrist_flex_l		wrist_dev_l		hand_finger_flex_l		
2.222500		0.797151		1.744983		94.490216		-0.029640		0.946784		0.570270		29.494765		-7.979168		-12.889846		-32.813706		-21.559361		-0.605660		24.940277		29.700976		-5.824631		-7.222067		-32.757785		-19.290917		4.665523		26.061447		-19.645232		0.207696		-4.342420		-26.737544		1.682599		0.516751		-70.408504		-17.471706		-37.615941		67.973213		116.179699		-4.405072		-12.221953		-32.866192		-72.605509		-15.338080		-36.417559		81.875701		117.834568		-12.308253		-6.754754		-14.473201		
2.225556		0.746710		2.128653		94.387659		-0.029732		0.935984		0.565561		29.748290		-8.122971		-12.972164		-34.160033		-21.551319		-0.618346		25.029963		30.032075		-5.919733		-7.147371		-34.353526		-19.438292		4.761618		26.214673		-20.050591		0.131677		-4.300266		-26.964034		1.751574		0.521153		-69.265304		-17.704198		-37.300798		67.807518		116.156183		-4.420112		-12.213378		-32.869959		-71.183130		-15.347304		-35.985471		81.596472		117.876395		-12.257442		-6.761711		-14.500610		
2.228611		0.788231		2.343264		94.349491		-0.029738		0.924452		0.561377		30.305769		-8.211375		-12.987876		-35.648903		-21.579447		-0.486826		25.197787		30.713019		-6.091756		-6.988055		-36.038423		-19.733663		5.004675		26.501101		-20.410753		0.139532		-4.293798		-26.295713		1.853910		0.526533		-68.056896		-17.952680		-36.897002		67.595965		116.105954		-4.640182		-12.371521		-32.963254		-69.761693		-15.322775		-35.612349		81.363528		118.082142		-12.406280		-7.009085		-14.621600		
2.231667		0.834376		2.523596		94.288796		-0.029713		0.912735		0.557157		30.906859		-8.287904		-12.976730		-37.094348		-21.671673		-0.338086		25.379949		31.420815		-6.256982		-6.768148		-37.628748		-20.049411		5.257898		26.818574		-20.719815		0.135276		-4.299109		-25.666897		1.964996		0.521513		-66.828440		-18.228219		-36.491637		67.403120		116.044492		-4.907804		-12.589720		-33.074238		-68.368588		-15.290049		-35.246078		81.141863		118.347037		-12.593227		-7.310127		-14.749386		
2.234722		0.878550		2.536862		94.243441		-0.029783		0.900610		0.553175		31.760699		-8.373160		-12.808968		-38.535855		-22.019622		-0.125059		25.667689		32.322698		-6.361685		-6.449427		-39.104083		-20.408358		5.624670		27.318959		-20.908383		0.124990		-4.322177		-24.742639		2.101255		0.520049		-65.535281		-18.580486		-35.956291		67.045534		115.933689		-5.346788		-12.997270		-33.248245		-66.918458		-15.232209		-34.906650		80.890000		118.876169		-12.982633		-7.795312		-14.903135		
2.237778		0.876369		2.380610		94.131748		-0.029649		0.888127		0.548911		32.825779		-8.468087		-12.578288		-40.033049		-22.051763		-0.050786		26.288804		33.379709		-6.430510		-6.152191		-40.608430		-20.141756		6.044338		28.358342		-20.815412		-0.005418		-4.348541		-24.273014		2.289850		0.553146		-64.204593		-18.961984		-35.310258		66.590497		115.646710		-6.051570		-13.678829		-33.477521		-65.555206		-15.189835		-34.598355		80.507105		119.777446		-13.624012		-8.453842		-14.976490		
2.240833		0.825251		2.548647		94.030977		-0.029628		0.876348		0.544443		33.456732		-8.576163		-12.364572		-41.445785		-21.634093		0.059622		26.918119		33.994164		-6.513888		-6.091188		-42.041771		-19.515958		6.568730		29.237761		-21.013157		-0.129600		-4.323512		-24.282940		2.392125		0.601380		-62.903653		-19.260794		-34.838397		66.313777		115.420408		-6.322228		-13.916227		-33.497015		-64.104240		-15.248457		-34.246195		80.327599		120.241658		-13.979007		-8.613058		-14.784002		
2.243889		0.743468		2.435224		93.874383		-0.029517		0.863784		0.540324		34.535455		-8.669731		-11.936364		-43.159244		-20.262747		0.173724		28.171601		34.947310		-6.537178		-5.902562		-43.704354		-17.521242		7.485133		30.987475		-21.022138		-0.343487		-4.263207		-23.577788		2.585981		0.670455		-61.503813		-19.628823		-34.198677		65.816714		114.990356		-6.904305		-14.381774		-33.545661		-62.652118		-15.270893		-33.914969		80.127249		121.080389		-14.812408		-8.969887		-14.398055		
2.246944		0.651354		2.627948		93.762006		-0.029364		0.851510		0.536158		35.294575		-8.792223		-11.699984		-45.168085		-17.775206		0.244524		28.878566		35.621073		-6.557345		-5.630498		-45.693269		-14.551386		8.478311		31.894118		-21.349314		-0.533312		-4.263912		-22.980067		2.774295		0.666197		-60.169328		-19.889795		-33.792402		65.685591		114.866133		-7.166025		-14.620533		-33.557137		-61.291723		-15.339858		-33.586550		80.107903		121.380856		-15.425942		-9.216440		-14.243637		
2.250000		0.587942		2.626505		93.559234		-0.029084		0.839126		0.531941		36.212004		-8.878456		-11.558227		-47.327438		-14.189205		0.643714		29.732473		36.429483		-6.673630		-5.394374		-47.839892		-10.641860		10.035268		32.946197		-21.449907		-0.740417		-4.175563		-22.455962		2.918125		0.746155		-58.647217		-20.209996		-33.264249		65.221315		114.584140		-7.594493		-14.920873		-33.570441		-59.793887		-15.450848		-33.134682		79.821861		121.819224		-16.425845		-9.584997		-13.917680		
2.253056		0.540479		2.774614		93.483609		-0.028829		0.826779		0.527845		36.981942		-8.936545		-11.434732		-49.852313		-9.835185		0.431878		30.022357		37.158598		-6.770084		-5.161033		-50.341622		-6.130396		10.834438		33.401888		-21.740860		-0.881346		-4.172202		-21.861311		3.094353		0.772045		-57.199211		-20.449073		-32.824606		64.986256		114.376654		-7.892458		-15.130531		-33.578779		-58.288737		-15.606028		-32.751987		79.660608		122.097346		-17.206554		-9.949049		-13.754093		
2.256111		0.538331		2.832665		93.281419		-0.028591		0.814374		0.523689		37.800286		-8.990429		-11.512687		-52.518296		-4.842588		0.699677		29.823723		37.915357		-6.993727		-4.978563		-52.956856		-1.236549		12.158030		33.434964		-21.898898		-1.007443		-4.056004		-21.352772		3.208123		0.843442		-55.648852		-20.776559		-32.308604		64.541683		114.012875		-8.344818		-15.382914		-33.590525		-56.684509		-15.742937		-32.243942		79.298927		122.432551		-18.336877		-10.489399		-13.534333		
